<svg width="20" height="20" viewBox="0 0 20 20" fill="none" xmlns="http://www.w3.org/2000/svg">
<path fill-rule="evenodd" clip-rule="evenodd" d="M0 10C0 4.47715 4.47715 0 10 0C15.5228 0 20 4.47715 20 10C20 15.5228 15.5228 20 10 20C4.47715 20 0 15.5228 0 10ZM18.4298 10.0001C18.4298 5.34444 14.6556 1.57031 10 1.57031C5.34438 1.57031 1.57025 5.34444 1.57025 10.0001C1.57025 14.6557 5.34438 18.4298 10 18.4298C14.6556 18.4298 18.4298 14.6557 18.4298 10.0001Z" fill="#0094FF"/>
<path d="M5.21713 13C5.15923 13 5.10712 12.98 5.0608 12.94C5.02027 12.8943 5 12.8429 5 12.7857V7.22286C5 7.16 5.02027 7.10857 5.0608 7.06857C5.10133 7.02286 5.15344 7 5.21713 7H9.00396C9.06766 7 9.11977 7.02286 9.1603 7.06857C9.20083 7.10857 9.2211 7.16 9.2211 7.22286V8.12286C9.2211 8.18571 9.20083 8.24 9.1603 8.28571C9.11977 8.32571 9.06766 8.34571 9.00396 8.34571H6.63285V12.7857C6.63285 12.8486 6.60969 12.9 6.56337 12.94C6.52284 12.98 6.47073 13 6.40703 13H5.21713Z" fill="#0094FF"/>
<path d="M10.1536 13C10.0957 13 10.0435 12.98 9.99722 12.94C9.95669 12.8943 9.93642 12.8429 9.93642 12.7857V7.22286C9.93642 7.16 9.95669 7.10857 9.99722 7.06857C10.0377 7.02286 10.0899 7 10.1536 7H14.3573C14.421 7 14.4731 7.02286 14.5136 7.06857C14.5599 7.10857 14.5831 7.16 14.5831 7.22286V8.12286C14.5831 8.18571 14.5599 8.24 14.5136 8.28571C14.4731 8.32571 14.421 8.34571 14.3573 8.34571H11.5693V9.29714H12.7331C13.4337 9.29714 13.9867 9.46 14.392 9.78571C14.7973 10.1114 15 10.5571 15 11.1229C15 11.4829 14.9103 11.8057 14.7308 12.0914C14.557 12.3714 14.2994 12.5943 13.9578 12.76C13.6161 12.92 13.2079 13 12.7331 13H10.1536ZM12.5855 11.8429C12.8113 11.8429 12.9879 11.7743 13.1153 11.6371C13.2427 11.4943 13.3063 11.32 13.3063 11.1143C13.3063 10.9143 13.2427 10.7486 13.1153 10.6171C12.9937 10.4857 12.8171 10.42 12.5855 10.42H11.5693V11.8429H12.5855Z" fill="#0094FF"/>
</svg>
